<svg width="40" height="40" viewBox="0 0 40 40" fill="none" xmlns="http://www.w3.org/2000/svg">
<g clip-path="url(#clip0)">
<path d="M31.5832 24.6415C30.7982 23.0048 27.9899 20.7331 25.2766 18.5381C23.7632 17.3148 22.3332 16.1581 21.4216 15.2465C21.1932 15.0165 20.8516 14.9431 20.5499 15.0515C19.9883 15.2548 19.6416 15.4115 19.3683 15.5331C18.9517 15.7198 18.8117 15.7831 18.2499 15.8398C18.0016 15.8648 17.7783 15.9981 17.6399 16.2048C16.4616 17.9664 15.2416 17.8164 14.4266 17.5431C14.1666 17.4565 14.1199 17.3448 14.0949 17.2381C13.9199 16.5065 14.7983 14.8031 15.9366 13.6648C18.6449 10.9548 20.0416 10.2764 22.9916 11.5948C26.3382 13.0914 29.6916 14.2631 29.7249 14.2748C30.1633 14.4264 30.6349 14.1964 30.7866 13.7614C30.9366 13.3264 30.7082 12.8514 30.2732 12.6998C30.2399 12.6881 26.9532 11.5398 23.6732 10.0714C19.8516 8.36304 17.7549 9.48805 14.7599 12.4848C13.6199 13.6248 12.0715 15.9314 12.4715 17.6231C12.6431 18.3431 13.1499 18.8765 13.9031 19.1248C15.7915 19.7481 17.5148 19.1514 18.7982 17.4481C19.3281 17.3665 19.6165 17.2465 20.0498 17.0515C20.2064 16.9815 20.3898 16.8998 20.6331 16.8015C21.5865 17.6965 22.8732 18.7381 24.2282 19.8331C26.6782 21.8148 29.4565 24.0615 30.0815 25.3615C30.3899 26.0031 30.0581 26.4215 29.8331 26.6131C29.5031 26.8965 29.0515 26.9865 28.8065 26.8148C28.5365 26.6298 28.1849 26.6181 27.9065 26.7848C27.6265 26.9514 27.4699 27.2664 27.5049 27.5898C27.5615 28.1198 27.0765 28.4231 26.8665 28.5281C26.3332 28.7981 25.7765 28.7515 25.5681 28.5581C25.3348 28.3415 24.9998 28.2781 24.7031 28.3881C24.4065 28.4998 24.1998 28.7731 24.1698 29.0898C24.1198 29.6364 23.7148 30.1614 23.1864 30.3664C22.9314 30.463 22.5614 30.5214 22.2298 30.218C22.0231 30.0314 21.7364 29.9597 21.4682 30.0247C21.1965 30.0913 20.9782 30.288 20.8832 30.5497C20.8515 30.633 20.7798 30.833 19.9998 30.833C19.4448 30.833 18.4464 30.458 17.9581 30.1347C17.3731 29.7497 13.7048 27.013 10.5365 24.3597C10.0915 23.9847 9.32151 23.1813 8.64151 22.4713C8.03815 21.8413 7.48651 21.2697 7.20315 21.0297C6.84815 20.7297 6.32315 20.7747 6.02815 21.128C5.73151 21.4797 5.77479 22.0064 6.12651 22.303C6.38487 22.5214 6.88487 23.0497 7.43651 23.6247C8.17987 24.4013 8.94815 25.2047 9.46487 25.638C12.5682 28.2364 16.2982 31.0414 17.0415 31.5297C17.6549 31.933 18.9765 32.4997 19.9999 32.4997C20.8215 32.4997 21.4532 32.3113 21.8915 31.943C22.4782 32.1714 23.1449 32.173 23.7865 31.923C24.5449 31.6297 25.1681 31.038 25.5215 30.3214C26.1782 30.4614 26.9299 30.363 27.6132 30.0198C28.2815 29.6831 28.7648 29.1681 29.0048 28.5664C29.6681 28.6014 30.3514 28.3664 30.9164 27.8814C31.8732 27.0631 32.1365 25.7898 31.5832 24.6415Z" fill="#008FCC"/>
<path d="M16.6666 10.833H9.16661C8.70661 10.833 8.33325 11.2064 8.33325 11.6664C8.33325 12.1264 8.70661 12.4997 9.16661 12.4997H16.6666C17.1266 12.4997 17.5 12.1264 17.5 11.6664C17.5 11.2064 17.1266 10.833 16.6666 10.833Z" fill="#008FCC"/>
<path d="M34.0249 22.868C33.7665 22.4863 33.2499 22.3813 32.8682 22.6413L30.4316 24.278C30.05 24.5346 29.9482 25.053 30.205 25.4346C30.3666 25.673 30.63 25.803 30.8983 25.803C31.0567 25.803 31.2183 25.758 31.3617 25.6614L33.7983 24.0247C34.1799 23.768 34.2815 23.2497 34.0249 22.868Z" fill="#008FCC"/>
<path d="M28.8516 26.8448C28.255 26.3748 25.5867 23.6431 23.9367 21.9231C23.6183 21.5897 23.09 21.5781 22.7583 21.8981C22.4249 22.2165 22.4149 22.7447 22.7333 23.0765C23.1617 23.5231 26.9399 27.4615 27.8183 28.1548C27.9699 28.2748 28.1533 28.3332 28.3333 28.3332C28.5783 28.3332 28.8233 28.2232 28.9899 28.0148C29.275 27.6548 29.2134 27.1298 28.8516 26.8448Z" fill="#008FCC"/>
<path d="M25.5217 28.5164C24.5234 27.7181 22.0151 25.0531 21.4484 24.4364C21.135 24.0964 20.61 24.0764 20.27 24.3864C19.9317 24.6981 19.9084 25.2264 20.22 25.5648C20.25 25.5964 23.2434 28.8282 24.48 29.8182C24.6334 29.9398 24.8184 29.9998 25 29.9998C25.2434 29.9998 25.4867 29.8914 25.6517 29.6882C25.9385 29.3281 25.8801 28.8031 25.5217 28.5164Z" fill="#008FCC"/>
<path d="M22.2051 30.1948C21.0167 29.1931 18.5851 26.6048 18.1101 26.0964C17.7951 25.7598 17.2667 25.7414 16.9317 26.0564C16.5951 26.3714 16.5783 26.898 16.8917 27.2348C17.5751 27.9664 19.9017 30.4331 21.1301 31.4698C21.2867 31.6014 21.4767 31.6664 21.6667 31.6664C21.9033 31.6664 22.1401 31.5648 22.3051 31.3698C22.6017 31.0164 22.5567 30.4914 22.2051 30.1948Z" fill="#008FCC"/>
<path d="M9.74 9.39474C8.31164 8.04138 2.6 7.60302 0.883359 7.50138C0.646719 7.48974 0.428359 7.56802 0.261719 7.72638C0.095 7.88302 0 8.10302 0 8.33302V23.333C0 23.793 0.373359 24.1664 0.833359 24.1664H5.83336C6.19336 24.1664 6.51336 23.9347 6.625 23.5914C6.74664 23.218 9.61836 14.4047 9.99664 10.0714C10.0184 9.81802 9.925 9.56802 9.74 9.39474ZM5.225 22.4997H1.66664V9.22638C4.345 9.43802 7.235 9.89802 8.285 10.408C7.84336 14.058 5.845 20.543 5.225 22.4997Z" fill="#008FCC"/>
<path d="M39.1667 9.16638C32.6233 9.16638 28.9933 10.8414 28.8417 10.9114C28.625 11.013 28.4633 11.2014 28.3967 11.4297C28.33 11.6581 28.3633 11.9031 28.4883 12.1064C29.5183 13.7647 32.7433 22.9747 33.3633 25.2214C33.4633 25.583 33.7917 25.833 34.1667 25.833H39.1667C39.6267 25.833 40 25.4597 40 24.9997V9.99966C40 9.53802 39.6267 9.16638 39.1667 9.16638ZM38.3334 24.1664H34.79C34 21.593 31.6667 14.883 30.365 12.1097C31.6367 11.6781 34.3684 10.9364 38.3334 10.8431V24.1664Z" fill="#008FCC"/>
</g>
<defs>
<clipPath id="clip0">
<rect width="40" height="40" fill="white"/>
</clipPath>
</defs>
</svg>
