<svg width="14" height="20" viewBox="0 0 14 20" fill="none" xmlns="http://www.w3.org/2000/svg">
<path d="M12.9211 3.42441C11.7073 1.32973 9.55137 0.05 7.15391 0.00109375C7.05157 -0.00101563 6.94856 -0.00101563 6.84618 0.00109375C4.44876 0.05 2.29282 1.32973 1.07899 3.42441C-0.161713 5.56551 -0.195658 8.13738 0.98817 10.3042L5.94766 19.3818C5.94989 19.3859 5.95212 19.3899 5.95442 19.3939C6.17262 19.7731 6.56352 19.9995 7.00012 19.9995C7.43669 19.9995 7.82758 19.7731 8.04575 19.3939C8.04805 19.3899 8.05028 19.3859 8.05251 19.3818L13.012 10.3042C14.1957 8.13738 14.1618 5.56551 12.9211 3.42441ZM7.00005 9.06203C5.44922 9.06203 4.18755 7.80035 4.18755 6.24953C4.18755 4.69871 5.44922 3.43703 7.00005 3.43703C8.55087 3.43703 9.81255 4.69871 9.81255 6.24953C9.81255 7.80035 8.5509 9.06203 7.00005 9.06203Z" fill="#008FCC"/>
</svg>
