<svg width="30" height="30" viewBox="0 0 30 30" fill="none" xmlns="http://www.w3.org/2000/svg">
<g clip-path="url(#clip0)">
<path d="M14.9999 12.8572C12.3371 12.8572 10.1785 15.0158 10.1785 17.6786C10.1785 20.3414 12.3371 22.5 14.9999 22.5C17.6627 22.5 19.8213 20.3414 19.8213 17.6786C19.8181 15.0171 17.6614 12.8604 14.9999 12.8572ZM14.9999 19.2857C14.1123 19.2857 13.3928 18.5662 13.3928 17.6786C13.3928 16.791 14.1123 16.0714 14.9999 16.0714C15.8875 16.0714 16.607 16.791 16.607 17.6786C16.607 18.5662 15.8875 19.2857 14.9999 19.2857Z" fill="white"/>
<path d="M14.9998 18.2143C15.2957 18.2143 15.5356 17.9744 15.5356 17.6786C15.5356 17.3827 15.2957 17.1429 14.9998 17.1429C14.704 17.1429 14.4641 17.3827 14.4641 17.6786C14.4641 17.9744 14.704 18.2143 14.9998 18.2143Z" fill="white"/>
<path d="M29.8034 7.98215C28.005 6.54697 22.9623 3.21429 15 3.21429C7.0377 3.21429 1.99502 6.54697 0.196631 7.98215C0.0238619 8.12216 -0.0434685 8.35493 0.0278812 8.56555L1.80163 13.3564C1.8837 13.6267 2.16044 13.7877 2.43592 13.7255L7.62056 12.5288C7.86431 12.4725 8.03665 12.255 8.03574 12.0048V9.61019C8.03763 9.0983 8.28135 8.61741 8.69306 8.31322C10.5395 7.02617 12.7502 6.36557 15 6.42858C17.2496 6.3656 19.4601 7.026 21.3065 8.31269C21.7185 8.61693 21.9624 9.09803 21.9643 9.61019V12.0048C21.9644 12.2542 22.1365 12.4705 22.3795 12.5266L27.5641 13.7234C27.8333 13.7853 28.1054 13.6324 28.1925 13.3704L29.9775 8.54894C30.0416 8.34218 29.9725 8.11727 29.8034 7.98215Z" fill="white"/>
<path d="M23.3706 13.8552L22.1385 13.5713C21.4079 13.405 20.8903 12.7541 20.893 12.0048V9.6102C20.8932 9.4376 20.8102 9.27546 20.6701 9.17466C19.0081 8.02384 17.0206 7.43683 15.0001 7.50002C12.9794 7.43694 10.9918 8.02393 9.32957 9.17466C9.18966 9.27558 9.10691 9.43769 9.10725 9.6102V12.0048C9.10988 12.7541 8.59235 13.405 7.86171 13.5713L6.62957 13.8552L1.1551 22.5236C1.1009 22.6096 1.07195 22.7091 1.07153 22.8107V26.25C1.07153 26.5459 1.31138 26.7857 1.60725 26.7857H28.393C28.6888 26.7857 28.9287 26.5459 28.9287 26.25V22.8107C28.9281 22.7083 28.8988 22.608 28.844 22.5214L23.3706 13.8552ZM15.0001 23.5714C11.7456 23.5714 9.10725 20.9331 9.10725 17.6786C9.10725 14.4241 11.7456 11.7857 15.0001 11.7857C18.2546 11.7857 20.893 14.4241 20.893 17.6786C20.8891 20.9315 18.253 23.5676 15.0001 23.5714Z" fill="white"/>
</g>
<defs>
<clipPath id="clip0">
<rect width="30" height="30" fill="white"/>
</clipPath>
</defs>
</svg>
