<svg width="160" height="30" viewBox="0 0 160 30" fill="none" xmlns="http://www.w3.org/2000/svg">
<path fill-rule="evenodd" clip-rule="evenodd" d="M16.1641 13.7378H18.7129H26.3595V16.3018H18.7129V23.9941H21.2618V21.43V18.866H23.8107H26.3595V21.43H23.8107V23.9941H26.3595V26.5582H16.1641V26.5581V23.9941V16.3018V13.7378Z" fill="white"/>
<path fill-rule="evenodd" clip-rule="evenodd" d="M26.3595 3.48145V6.04549H3.41968V3.48145H26.3595Z" fill="white"/>
<path fill-rule="evenodd" clip-rule="evenodd" d="M26.3595 8.60986V11.1739H16.1641V8.60986H26.3595ZM13.6151 11.1739V26.5583H11.0662V11.1739H8.51738V26.5583H5.96853V11.1739H3.41968V8.60986H5.96853H8.51738H11.0662H13.6151V11.1739Z" fill="white"/>
<path d="M34.0351 12.2777V4.86357H30.5276V3.89982H38.5777V4.86357H35.0702V12.2777H34.0351ZM39.0257 12.2777V3.89982H45.577V4.86357H40.0609V7.31932H43.3984V8.28306H40.0609V11.314H45.9169V12.2777H39.0257ZM54.1035 9.60427L54.9379 10.226C54.5567 10.9539 54.0315 11.516 53.367 11.9072C52.7052 12.2984 51.9507 12.4953 51.1034 12.4953C49.857 12.4953 48.8269 12.0808 48.0132 11.2544C47.202 10.428 46.7951 9.37887 46.7951 8.10694C46.7951 6.83234 47.202 5.78059 48.0157 4.95424C48.8321 4.12777 49.8596 3.71338 51.1009 3.71338C51.8708 3.71338 52.5739 3.88173 53.2073 4.22111C53.8408 4.56048 54.3559 5.04491 54.7524 5.67183L53.8846 6.29354C53.6245 5.79357 53.246 5.39982 52.7541 5.11738C52.2622 4.83505 51.7112 4.69255 51.1034 4.69255C50.1686 4.69255 49.3935 5.01639 48.7806 5.6614C48.1677 6.30652 47.8613 7.12244 47.8613 8.10694C47.8613 9.09388 48.1677 9.90991 48.7806 10.5524C49.3935 11.1948 50.1686 11.516 51.1034 11.516C51.7575 11.516 52.3369 11.3529 52.8443 11.029C53.3515 10.7052 53.7713 10.2311 54.1035 9.60427ZM56.7919 12.2777V3.89982H57.8426V7.21056H62.7561V3.89982H63.7913V12.2777H62.7561V8.17419H57.8426V12.2777H56.7919ZM66.3124 12.2777V3.89982H66.8558L72.2612 10.1612V3.89982H73.2963V12.2777H72.7684L67.3476 6.01631V12.2777H66.3124ZM79.4278 11.516C80.3626 11.516 81.1378 11.1948 81.7532 10.5524C82.3661 9.90991 82.6726 9.09388 82.6726 8.10694C82.6726 7.11734 82.3661 6.29875 81.7558 5.65629C81.1455 5.01383 80.3677 4.69255 79.4278 4.69255C78.493 4.69255 77.7179 5.01639 77.1024 5.6614C76.4896 6.30652 76.1831 7.12244 76.1831 8.10694C76.1831 9.09388 76.4896 9.90991 77.1024 10.5524C77.7179 11.1948 78.493 11.516 79.4278 11.516ZM79.4252 12.4953C78.1763 12.4953 77.1462 12.0808 76.335 11.2544C75.5238 10.428 75.1169 9.37887 75.1169 8.10694C75.1169 6.83234 75.5238 5.78059 76.3402 4.95424C77.1539 4.12777 78.1815 3.71338 79.4252 3.71338C80.6716 3.71338 81.7043 4.12777 82.5257 4.95934C83.3446 5.78836 83.7542 6.83756 83.7542 8.10694C83.7542 9.37887 83.3446 10.428 82.5284 11.2544C81.712 12.0808 80.6768 12.4953 79.4252 12.4953ZM92.2188 9.60427L93.0532 10.226C92.672 10.9539 92.1468 11.516 91.4823 11.9072C90.8205 12.2984 90.066 12.4953 89.2187 12.4953C87.9723 12.4953 86.9422 12.0808 86.1285 11.2544C85.3173 10.428 84.9104 9.37887 84.9104 8.10694C84.9104 6.83234 85.3173 5.78059 86.131 4.95424C86.9474 4.12777 87.975 3.71338 89.2162 3.71338C89.9861 3.71338 90.6892 3.88173 91.3227 4.22111C91.9562 4.56048 92.4712 5.04491 92.8677 5.67183L91.9999 6.29354C91.7398 5.79357 91.3613 5.39982 90.8695 5.11738C90.3775 4.83505 89.8265 4.69255 89.2187 4.69255C88.284 4.69255 87.5089 5.01639 86.8959 5.6614C86.2831 6.30652 85.9766 7.12244 85.9766 8.10694C85.9766 9.09388 86.2831 9.90991 86.8959 10.5524C87.5089 11.1948 88.284 11.516 89.2187 11.516C89.8728 11.516 90.4522 11.3529 90.9596 11.029C91.4669 10.7052 91.8866 10.2311 92.2188 9.60427ZM98.5537 11.516C99.4886 11.516 100.264 11.1948 100.879 10.5524C101.492 9.90991 101.799 9.09388 101.799 8.10694C101.799 7.11734 101.492 6.29875 100.882 5.65629C100.271 5.01383 99.4937 4.69255 98.5537 4.69255C97.619 4.69255 96.8438 5.01639 96.2284 5.6614C95.6155 6.30652 95.3091 7.12244 95.3091 8.10694C95.3091 9.09388 95.6155 9.90991 96.2284 10.5524C96.8438 11.1948 97.619 11.516 98.5537 11.516ZM98.5512 12.4953C97.3022 12.4953 96.2722 12.0808 95.461 11.2544C94.6498 10.428 94.2429 9.37887 94.2429 8.10694C94.2429 6.83234 94.6498 5.78059 95.4661 4.95424C96.2799 4.12777 97.3074 3.71338 98.5512 3.71338C99.7976 3.71338 100.83 4.12777 101.652 4.95934C102.471 5.78836 102.88 6.83756 102.88 8.10694C102.88 9.37887 102.471 10.428 101.654 11.2544C100.838 12.0808 99.8028 12.4953 98.5512 12.4953ZM105.69 7.63028H109.367C109.89 7.63028 110.286 7.51364 110.554 7.28047C110.825 7.04997 110.959 6.70804 110.959 6.25724C110.959 5.81943 110.825 5.47495 110.554 5.23135C110.286 4.98531 109.908 4.86357 109.419 4.86357H105.69V7.63028ZM104.654 12.2777V3.89982H109.434C110.248 3.89982 110.884 4.10713 111.347 4.51897C111.808 4.93093 112.04 5.50081 112.04 6.22872C112.04 6.83489 111.86 7.35306 111.499 7.78565C111.136 8.21825 110.66 8.48771 110.067 8.59391L112.148 12.2777H111.005L108.922 8.60945H105.69V12.2777H104.654ZM114.917 7.63028H118.594C119.117 7.63028 119.513 7.51364 119.781 7.28047C120.051 7.04997 120.185 6.70804 120.185 6.25724C120.185 5.81943 120.051 5.47495 119.781 5.23135C119.513 4.98531 119.135 4.86357 118.645 4.86357H114.917V7.63028ZM113.881 12.2777V3.89982H118.661C119.47 3.89982 120.106 4.10192 120.569 4.50611C121.035 4.91018 121.267 5.46452 121.267 6.16658C121.267 6.89449 121.043 7.48512 120.592 7.93337C120.144 8.38405 119.544 8.60945 118.797 8.60945H114.917V12.2777H113.881Z" fill="white" stroke="white" stroke-width="0.0762" stroke-miterlimit="22.9256"/>
<path d="M32.7727 16.8762H31.2891V20.1942H30.853V16.4712H32.7727V16.8762Z" fill="white"/>
<path d="M35.9662 16.4712L34.8226 19.0696C34.6192 19.5304 34.4226 19.8433 34.2342 20.0099C34.0447 20.1756 33.8377 20.2589 33.6148 20.2589C33.4307 20.2589 33.2765 20.2324 33.1522 20.1782V19.7369C33.3002 19.8255 33.443 19.8698 33.5804 19.8698C33.7205 19.8698 33.8483 19.8158 33.9654 19.7077C34.0826 19.5995 34.2086 19.4081 34.3452 19.1352L33.0906 16.4712H33.5831L34.4712 18.4599C34.4869 18.4926 34.5186 18.5733 34.5672 18.701H34.5715C34.5768 18.6859 34.6121 18.6017 34.6782 18.4492L35.501 16.4712H35.9662Z" fill="white"/>
<path d="M39.2275 20.1942H38.7889V16.8762H36.8559V20.1942H36.4199V16.4712H39.2275V20.1942Z" fill="white"/>
<path d="M43.5929 19.6746H43.1586L42.3868 18.8025L43.1586 17.9092H43.5973L42.8052 18.8025L43.5929 19.6746ZM42.5885 19.6746H42.1603L41.3887 18.8025L42.1603 17.9092H42.5885L41.8063 18.8025L42.5885 19.6746Z" fill="white"/>
<path d="M47.5882 21.1939H47.1873V20.1942H44.3101V16.4712H44.7434V19.7999H46.6587V16.4712H47.0922V19.7999H47.5882V21.1939Z" fill="white"/>
<path d="M50.1942 20.1942H48.2332V16.4712H50.1122V16.8655H48.6665V18.1045H50.0039V18.4962H48.6665V19.7999H50.1942V20.1942Z" fill="white"/>
<path d="M53.6891 20.1942H53.2556V18.4962H51.3404V20.1942H50.907V16.4712H51.3404V18.1045H53.2556V16.4712H53.6891V20.1942Z" fill="white"/>
<path d="M56.8481 16.8655H55.7794V20.1942H55.3461V16.8655H54.28V16.4712H56.8481V16.8655Z" fill="white"/>
<path d="M57.8631 18.7869V20.1942H57.4297V16.4712H58.4463C58.8418 16.4712 59.1484 16.5678 59.367 16.7619C59.5846 16.956 59.6929 17.2289 59.6929 17.5825C59.6929 17.9352 59.5722 18.2242 59.33 18.4492C59.0885 18.6743 58.7617 18.7869 58.3512 18.7869H57.8631ZM57.8631 16.8655V18.3925H58.3176C58.6163 18.3925 58.8454 18.3234 59.0022 18.186C59.1598 18.0486 59.2383 17.8537 59.2383 17.6028C59.2383 17.111 58.9494 16.8655 58.3714 16.8655H57.8631Z" fill="white"/>
<path d="M62.2715 18.7869V20.1942H61.8381V16.4712H62.8547C63.2503 16.4712 63.5569 16.5678 63.7754 16.7619C63.993 16.956 64.1014 17.2289 64.1014 17.5825C64.1014 17.9352 63.9807 18.2242 63.7384 18.4492C63.497 18.6743 63.1702 18.7869 62.7596 18.7869H62.2715ZM62.2715 16.8655V18.3925H62.7261C63.0247 18.3925 63.2539 18.3234 63.4106 18.186C63.5683 18.0486 63.6468 17.8537 63.6468 17.6028C63.6468 17.111 63.3578 16.8655 62.7798 16.8655H62.2715Z" fill="white"/>
<path d="M67.2499 20.1942H66.7698L66.3777 19.1503H64.8078L64.4387 20.1942H63.9568L65.3761 16.4712H65.8254L67.2499 20.1942ZM66.235 18.7586L65.6544 17.1722C65.6359 17.1199 65.6165 17.0365 65.5981 16.9232H65.5875C65.5708 17.0285 65.5505 17.111 65.5285 17.1722L64.9523 18.7586H66.235Z" fill="white"/>
<path d="M67.5564 20.0383V19.5659C67.8454 19.7785 68.173 19.8849 68.5396 19.8849C68.8065 19.8849 69.0188 19.8202 69.1765 19.6908C69.3334 19.5606 69.4126 19.3859 69.4126 19.1662C69.4126 18.6885 69.0911 18.4492 68.4497 18.4492H68.0647V18.0885H68.4189C68.6919 18.0885 68.9042 18.0291 69.0549 17.9095C69.2055 17.7898 69.2804 17.6215 69.2804 17.4035C69.2804 17.2165 69.2179 17.0667 69.0937 16.9541C68.9686 16.8416 68.7968 16.7848 68.5783 16.7848C68.269 16.7848 67.9678 16.8832 67.6753 17.0781V16.6368C67.9476 16.4844 68.2603 16.4082 68.6145 16.4082C68.9659 16.4082 69.2417 16.4924 69.4434 16.6607C69.6443 16.8283 69.7456 17.0489 69.7456 17.3228C69.7456 17.8058 69.5113 18.1097 69.0435 18.2366V18.2471C69.2981 18.2763 69.4998 18.3721 69.6496 18.5351C69.7993 18.6983 69.8743 18.8994 69.8743 19.1396C69.8743 19.4808 69.7536 19.752 69.513 19.9541C69.2725 20.1561 68.9431 20.2562 68.5246 20.2562C68.1061 20.2562 67.7837 20.1835 67.5564 20.0383Z" fill="white"/>
<path d="M70.6487 20.1942V16.4712H71.7015C72.0212 16.4712 72.2758 16.55 72.4626 16.7069C72.6503 16.8646 72.7444 17.0703 72.7444 17.3228C72.7444 17.5337 72.6873 17.7172 72.5736 17.8732C72.46 18.0292 72.304 18.1399 72.1041 18.2055V18.2162C72.3534 18.2454 72.5533 18.3403 72.7031 18.4998C72.8529 18.6601 72.9277 18.8684 72.9277 19.1245C72.9277 19.4427 72.8141 19.7007 72.5868 19.8982C72.3595 20.0959 72.0732 20.1942 71.7269 20.1942H70.6487ZM71.0821 16.8655V18.0681H71.526C71.7631 18.0681 71.9498 18.0105 72.0864 17.8954C72.2221 17.7801 72.2899 17.6179 72.2899 17.4079C72.2899 17.0463 72.0538 16.8655 71.5799 16.8655H71.0821ZM71.0821 18.4599V19.7999H71.6706C71.9252 19.7999 72.1225 19.7387 72.2625 19.6182C72.4035 19.4968 72.4731 19.3302 72.4731 19.1192C72.4731 18.6796 72.1754 18.4599 71.5799 18.4599H71.0821Z" fill="white"/>
<path d="M76.6623 20.1942H76.228V17.5045C76.228 17.2617 76.2368 17.0915 76.2544 16.9932H76.2386C76.206 17.0774 76.1664 17.1553 76.1197 17.2262L74.2149 20.1942H73.6785V16.4712H74.1118V19.0936C74.1118 19.3736 74.1048 19.5562 74.0916 19.6412H74.1012C74.1392 19.565 74.1877 19.4817 74.2458 19.3922L76.1047 16.4712H76.6623V20.1942Z" fill="white"/>
<path d="M79.8259 16.8655H78.7572V20.1942H78.3238V16.8655H77.2578V16.4712H79.8259V16.8655Z" fill="white"/>
<path d="M83.3913 20.1942H82.957V17.5045C82.957 17.2617 82.9658 17.0915 82.9834 16.9932H82.9676C82.935 17.0774 82.8953 17.1553 82.8487 17.2262L80.9439 20.1942H80.4075V16.4712H80.8408V19.0936C80.8408 19.3736 80.8338 19.5562 80.8206 19.6412H80.8302C80.8682 19.565 80.9167 19.4817 80.9748 19.3922L82.8337 16.4712H83.3913V20.1942Z" fill="white"/>
<path d="M86.5162 20.1942H86.0827V18.6105H85.5435C85.4405 18.6105 85.3498 18.6389 85.2713 18.6947C85.1929 18.7514 85.1092 18.8773 85.0193 19.0722L84.5551 20.1942H84.0388L84.6009 18.9508C84.637 18.8693 84.6926 18.7834 84.7674 18.692C84.8423 18.6017 84.9295 18.537 85.0299 18.4989V18.4882C84.7833 18.4351 84.5921 18.3216 84.4556 18.1479C84.319 17.9751 84.2503 17.766 84.2503 17.5196C84.2503 17.2032 84.3595 16.9489 84.5797 16.7583C84.7992 16.5668 85.0863 16.4712 85.4422 16.4712H86.5162V20.1942ZM86.0827 18.2162V16.8655H85.4811C85.2369 16.8655 85.0476 16.924 84.9119 17.0392C84.7771 17.1553 84.7093 17.3192 84.7093 17.5302C84.7093 17.7412 84.7789 17.9086 84.9163 18.0318C85.0537 18.1542 85.2388 18.2162 85.4714 18.2162H86.0827Z" fill="white"/>
<path d="M91.9218 20.1942H91.4875V17.5045C91.4875 17.2617 91.4963 17.0915 91.5139 16.9932H91.4981C91.4655 17.0774 91.4259 17.1553 91.3792 17.2262L89.4744 20.1942H88.938V16.4712H89.3714V19.0936C89.3714 19.3736 89.3643 19.5562 89.3511 19.6412H89.3608C89.3987 19.565 89.4472 19.4817 89.5053 19.3922L91.3642 16.4712H91.9218V20.1942Z" fill="white"/>
<path d="M95.6794 20.1942H95.2459V18.4962H93.3306V20.1942H92.8972V16.4712H93.3306V18.1045H95.2459V16.4712H95.6794V20.1942Z" fill="white"/>
<path d="M98.3073 19.7056V20.194H97.9047V19.7056H97.8351C97.4218 19.7056 97.0809 19.5648 96.8113 19.2812C96.5417 18.9985 96.407 18.6502 96.407 18.2364C96.407 17.8419 96.5417 17.5096 96.8096 17.2393C97.0783 16.9689 97.4218 16.8342 97.8394 16.8342H97.9047V16.3672H98.3073V16.8342H98.3689C98.7918 16.8342 99.1371 16.9672 99.4023 17.2331C99.6684 17.498 99.8014 17.8331 99.8014 18.2364C99.8014 18.6448 99.6666 18.9922 99.397 19.2777C99.1284 19.563 98.7874 19.7056 98.3742 19.7056H98.3073ZM98.3073 17.2003V19.322H98.3742C98.6685 19.322 98.9037 19.2235 99.0817 19.0269C99.2587 18.8301 99.3468 18.5687 99.3468 18.2416C99.3468 17.9297 99.2587 17.6789 99.0817 17.4875C98.9037 17.296 98.6668 17.2003 98.3689 17.2003H98.3073ZM97.9047 19.322V17.2003H97.8394C97.547 17.2003 97.3108 17.2968 97.1312 17.4909C96.9515 17.685 96.8616 17.935 96.8616 18.2416C96.8616 18.5704 96.9506 18.8328 97.1276 19.0286C97.3047 19.2235 97.5408 19.322 97.8351 19.322H97.9047Z" fill="white"/>
<path d="M101.982 20.2562C101.457 20.2562 101.037 20.0825 100.721 19.7342C100.406 19.3869 100.247 18.934 100.247 18.3765C100.247 17.7774 100.409 17.2997 100.73 16.9435C101.052 16.5872 101.49 16.4082 102.045 16.4082C102.556 16.4082 102.967 16.5819 103.279 16.9275C103.592 17.2741 103.748 17.7269 103.748 18.2862C103.748 18.8932 103.587 19.3735 103.267 19.7272C102.948 20.0799 102.519 20.2562 101.982 20.2562ZM102.013 16.8035C101.624 16.8035 101.309 16.9443 101.066 17.2262C100.824 17.5089 100.702 17.8793 100.702 18.3376C100.702 18.7966 100.82 19.1653 101.057 19.4453C101.293 19.7245 101.602 19.8646 101.982 19.8646C102.388 19.8646 102.708 19.7316 102.942 19.4648C103.177 19.1981 103.293 18.825 103.293 18.3456C103.293 17.8537 103.18 17.4743 102.953 17.2058C102.726 16.9373 102.412 16.8035 102.013 16.8035Z" fill="white"/>
<path d="M104.908 18.7869V20.1942H104.475V16.4712H105.492C105.887 16.4712 106.194 16.5678 106.412 16.7619C106.63 16.956 106.738 17.2289 106.738 17.5825C106.738 17.9352 106.618 18.2242 106.375 18.4492C106.134 18.6743 105.807 18.7869 105.397 18.7869H104.908ZM104.908 16.8655V18.3925H105.363C105.662 18.3925 105.891 18.3234 106.048 18.186C106.205 18.0486 106.284 17.8537 106.284 17.6028C106.284 17.111 105.995 16.8655 105.417 16.8655H104.908Z" fill="white"/>
<path d="M111.209 20.1942H110.778V17.6969C110.778 17.4992 110.789 17.2581 110.814 16.9718H110.803C110.762 17.1403 110.725 17.2599 110.692 17.3326L109.428 20.1942H109.216L107.954 17.3539C107.918 17.2705 107.881 17.1438 107.843 16.9718H107.833C107.847 17.1207 107.853 17.3644 107.853 17.7013V20.1942H107.435V16.4712H108.008L109.143 19.0669C109.232 19.2663 109.288 19.4152 109.314 19.5136H109.329C109.403 19.3098 109.463 19.1573 109.507 19.0571L110.667 16.4712H111.209V20.1942Z" fill="white"/>
<path d="M115.047 20.1942H114.567L114.175 19.1503H112.605L112.236 20.1942H111.754L113.173 16.4712H113.622L115.047 20.1942ZM114.032 18.7586L113.452 17.1722C113.433 17.1199 113.414 17.0365 113.395 16.9232H113.385C113.368 17.0285 113.348 17.111 113.326 17.1722L112.749 18.7586H114.032Z" fill="white"/>
<path d="M118.869 21.1939H118.469V20.1942H115.591V16.4712H116.025V19.7999H117.94V16.4712H118.373V19.7999H118.869V21.1939Z" fill="white"/>
<path d="M122.498 20.1942H122.064V17.5045C122.064 17.2617 122.073 17.0915 122.09 16.9932H122.075C122.042 17.0774 122.002 17.1553 121.956 17.2262L120.051 20.1942H119.514V16.4712H119.948V19.0936C119.948 19.3736 119.941 19.5562 119.927 19.6412H119.937C119.975 19.565 120.024 19.4817 120.082 19.3922L121.941 16.4712H122.498V20.1942Z" fill="white"/>
<path d="M124.965 20.2562C124.44 20.2562 124.02 20.0825 123.704 19.7342C123.389 19.3869 123.23 18.934 123.23 18.3765C123.23 17.7774 123.392 17.2997 123.713 16.9435C124.035 16.5872 124.474 16.4082 125.028 16.4082C125.539 16.4082 125.95 16.5819 126.262 16.9275C126.575 17.2741 126.731 17.7269 126.731 18.2862C126.731 18.8932 126.57 19.3735 126.251 19.7272C125.931 20.0799 125.503 20.2562 124.965 20.2562ZM124.996 16.8035C124.607 16.8035 124.292 16.9443 124.049 17.2262C123.807 17.5089 123.685 17.8793 123.685 18.3376C123.685 18.7966 123.803 19.1653 124.04 19.4453C124.276 19.7245 124.585 19.8646 124.965 19.8646C125.371 19.8646 125.691 19.7316 125.925 19.4648C126.16 19.1981 126.276 18.825 126.276 18.3456C126.276 17.8537 126.163 17.4743 125.936 17.2058C125.709 16.9373 125.395 16.8035 124.996 16.8035Z" fill="white"/>
<path d="M130.241 20.1942H129.807V18.4962H127.892V20.1942H127.458V16.4712H127.892V18.1045H129.807V16.4712H130.241V20.1942Z" fill="white"/>
<path d="M133.994 20.1942H133.56V18.4962H131.645V20.1942H131.211V16.4712H131.645V18.1045H133.56V16.4712H133.994V20.1942Z" fill="white"/>
<path d="M138.131 20.1942H137.697V16.4712H138.131V20.1942ZM134.964 20.1942V16.4712H135.398V18.0496H136.1C136.468 18.0496 136.754 18.1391 136.959 18.3181C137.164 18.4971 137.266 18.7523 137.266 19.0829C137.266 19.4259 137.159 19.6961 136.944 19.8956C136.729 20.095 136.436 20.1942 136.064 20.1942H134.964ZM135.398 18.4439V19.7999H136.007C136.263 19.7999 136.461 19.7387 136.6 19.6182C136.739 19.4968 136.81 19.3266 136.81 19.1086C136.81 18.6655 136.542 18.4439 136.007 18.4439H135.398Z" fill="white"/>
<path d="M141.659 20.1942H141.13L140.278 18.7691C140.253 18.7258 140.224 18.6637 140.193 18.5848H140.182C140.166 18.6247 140.137 18.6859 140.095 18.7691L139.218 20.1942H138.686L139.924 18.3225L138.784 16.4712H139.315L140.071 17.7792C140.122 17.8661 140.166 17.953 140.204 18.0389H140.214C140.269 17.9246 140.317 17.8351 140.359 17.7694L141.145 16.4712H141.644L140.479 18.3172L141.659 20.1942Z" fill="white"/>
<path d="M33.0412 23.2312H31.9726V26.56H31.5392V23.2312H30.4731V22.8369H33.0412V23.2312Z" fill="white"/>
<path d="M35.5838 26.56H33.6228V22.8369H35.5019V23.2312H34.0562V24.4703H35.3935V24.8619H34.0562V26.1656H35.5838V26.56Z" fill="white"/>
<path d="M38.8769 26.56H38.3483L37.4963 25.1349C37.4709 25.0915 37.4417 25.0295 37.4109 24.9505H37.4003C37.3836 24.9904 37.3546 25.0516 37.3132 25.1349L36.4357 26.56H35.9036L37.1423 24.6882L36.0022 22.8369H36.5335L37.2893 24.1449C37.3396 24.2319 37.3836 24.3187 37.4215 24.4046H37.432C37.4867 24.2903 37.5352 24.2008 37.5766 24.1352L38.3633 22.8369H38.8619L37.6972 24.6829L38.8769 26.56Z" fill="white"/>
<path d="M42.2221 26.56H41.7886V24.8619H39.8733V26.56H39.4399V22.8369H39.8733V24.4703H41.7886V22.8369H42.2221V26.56Z" fill="white"/>
<path d="M44.6844 26.622C44.1592 26.622 43.7391 26.4483 43.4237 26.1C43.1083 25.7526 42.9497 25.2997 42.9497 24.7422C42.9497 24.1431 43.111 23.6654 43.4325 23.3092C43.754 22.9529 44.1928 22.7739 44.747 22.7739C45.2579 22.7739 45.6693 22.9476 45.9812 23.2932C46.294 23.6398 46.4499 24.0926 46.4499 24.6519C46.4499 25.2589 46.2895 25.7393 45.9697 26.0929C45.6499 26.4456 45.2218 26.622 44.6844 26.622ZM44.7153 23.1692C44.3267 23.1692 44.0112 23.3101 43.7682 23.5919C43.5259 23.8746 43.4043 24.2451 43.4043 24.7033C43.4043 25.1623 43.5223 25.531 43.7593 25.811C43.9955 26.0902 44.3047 26.2303 44.6844 26.2303C45.0905 26.2303 45.4103 26.0973 45.6446 25.8305C45.879 25.5638 45.9953 25.1907 45.9953 24.7113C45.9953 24.2194 45.8825 23.8401 45.6552 23.5715C45.4279 23.303 45.1143 23.1692 44.7153 23.1692Z" fill="white"/>
<path d="M49.7324 26.56H49.299V23.2312H48.2717C48.1537 24.1697 48.0594 24.8327 47.9907 25.22C47.922 25.6082 47.8524 25.8935 47.782 26.0769C47.7115 26.2604 47.6154 26.3969 47.4948 26.4864C47.3749 26.575 47.2305 26.6193 47.0613 26.6193C46.9256 26.6193 46.8076 26.6016 46.708 26.5653V26.155C46.7962 26.2055 46.893 26.2303 46.9996 26.2303C47.1062 26.2303 47.2066 26.1664 47.3001 26.038C47.3944 25.9103 47.4895 25.5771 47.5864 25.0383C47.6841 24.5004 47.7917 23.7666 47.9106 22.8369H49.7324V26.56Z" fill="white"/>
<path d="M52.2 26.622C51.6749 26.622 51.2547 26.4483 50.9393 26.1C50.6239 25.7526 50.4653 25.2997 50.4653 24.7422C50.4653 24.1431 50.6266 23.6654 50.9482 23.3092C51.2696 22.9529 51.7084 22.7739 52.2626 22.7739C52.7735 22.7739 53.1849 22.9476 53.4968 23.2932C53.8096 23.6398 53.9655 24.0926 53.9655 24.6519C53.9655 25.2589 53.8051 25.7393 53.4854 26.0929C53.1655 26.4456 52.7374 26.622 52.2 26.622ZM52.2309 23.1692C51.8423 23.1692 51.5269 23.3101 51.2838 23.5919C51.0415 23.8746 50.9199 24.2451 50.9199 24.7033C50.9199 25.1623 51.0379 25.531 51.2749 25.811C51.5111 26.0902 51.8203 26.2303 52.2 26.2303C52.6062 26.2303 52.9259 26.0973 53.1602 25.8305C53.3947 25.5638 53.511 25.1907 53.511 24.7113C53.511 24.2194 53.3981 23.8401 53.1708 23.5715C52.9435 23.303 52.6299 23.1692 52.2309 23.1692Z" fill="white"/>
<path d="M56.613 23.2419H55.1294V26.56H54.6934V22.8369H56.613V23.2419Z" fill="white"/>
<path d="M60.1704 26.56H59.7361V23.8702C59.7361 23.6274 59.7448 23.4572 59.7625 23.3589H59.7467C59.7141 23.4431 59.6744 23.521 59.6277 23.592L57.7229 26.56H57.1865V22.8369H57.6199V25.4593C57.6199 25.7393 57.6129 25.9219 57.5996 26.0069H57.6093C57.6472 25.9307 57.6957 25.8475 57.7538 25.758L59.6127 22.8369H60.1704V26.56Z" fill="white"/>
<path d="M64.1296 26.5598H63.6953V23.8701C63.6953 23.6273 63.7041 23.4571 63.7217 23.3588H63.7059C63.6733 23.443 63.6336 23.5209 63.587 23.5918L61.6822 26.5598H61.1458V22.8368H61.5791V25.4591C61.5791 25.7392 61.5721 25.9218 61.5588 26.0068H61.5685C61.6064 25.9306 61.655 25.8473 61.7131 25.7578L63.572 22.8368H64.1296V26.5598ZM63.5817 21.7041C63.5561 21.9478 63.4583 22.1411 63.2891 22.282C63.1191 22.4229 62.9077 22.4938 62.6531 22.4938C62.3914 22.4938 62.1783 22.4229 62.0134 22.282C61.8496 22.1411 61.7597 21.9478 61.744 21.7041H62.1623C62.1862 22.0293 62.3518 22.1925 62.6575 22.1925C62.7958 22.1925 62.9095 22.149 62.9984 22.064C63.0882 21.978 63.1429 21.8583 63.1641 21.7041H63.5817Z" fill="white"/>
<path d="M69.5371 26.56H69.1028V23.8702C69.1028 23.6274 69.1115 23.4572 69.1292 23.3589H69.1134C69.0807 23.4431 69.0411 23.521 68.9944 23.592L67.0896 26.56H66.5532V22.8369H66.9866V25.4593C66.9866 25.7393 66.9796 25.9219 66.9663 26.0069H66.976C67.0139 25.9307 67.0624 25.8475 67.1205 25.758L68.9794 22.8369H69.5371V26.56Z" fill="white"/>
<path d="M74.9445 26.56H74.5102V23.8702C74.5102 23.6274 74.519 23.4572 74.5366 23.3589H74.5208C74.4882 23.4431 74.4486 23.521 74.4019 23.592L72.4971 26.56H71.9607V22.8369H72.3941V25.4593C72.3941 25.7393 72.387 25.9219 72.3738 26.0069H72.3835C72.4214 25.9307 72.4699 25.8475 72.528 25.758L74.3869 22.8369H74.9445V26.56Z" fill="white"/>
<path d="M78.7021 26.56H78.2686V24.8619H76.3533V26.56H75.9199V22.8369H76.3533V24.4703H78.2686V22.8369H78.7021V26.56Z" fill="white"/>
<path d="M81.33 26.0714V26.5597H80.9274V26.0714H80.8578C80.4445 26.0714 80.1036 25.9305 79.834 25.6469C79.5644 25.3642 79.4297 25.0159 79.4297 24.6021C79.4297 24.2076 79.5644 23.8753 79.8323 23.6051C80.101 23.3347 80.4446 23.1999 80.8621 23.1999H80.9274V22.7329H81.33V23.1999H81.3916C81.8145 23.1999 82.1598 23.3329 82.4251 23.5988C82.6911 23.8637 82.8241 24.1988 82.8241 24.6021C82.8241 25.0106 82.6893 25.3579 82.4198 25.6434C82.1511 25.9287 81.8102 26.0714 81.3969 26.0714H81.33ZM81.33 23.566V25.6877H81.3969C81.6912 25.6877 81.9264 25.5893 82.1044 25.3926C82.2814 25.1958 82.3695 24.9344 82.3695 24.6073C82.3695 24.2954 82.2814 24.0446 82.1044 23.8532C81.9264 23.6618 81.6895 23.566 81.3916 23.566H81.33ZM80.9274 25.6877V23.566H80.8621C80.5697 23.566 80.3336 23.6626 80.1539 23.8567C79.9742 24.0508 79.8843 24.3007 79.8843 24.6073C79.8843 24.9361 79.9733 25.1985 80.1503 25.3943C80.3274 25.5893 80.5635 25.6877 80.8578 25.6877H80.9274Z" fill="white"/>
<path d="M85.0047 26.622C84.4796 26.622 84.0594 26.4483 83.744 26.1C83.4286 25.7526 83.27 25.2997 83.27 24.7422C83.27 24.1431 83.4313 23.6654 83.7528 23.3092C84.0743 22.9529 84.5131 22.7739 85.0673 22.7739C85.5782 22.7739 85.9896 22.9476 86.3015 23.2932C86.6143 23.6398 86.7702 24.0926 86.7702 24.6519C86.7702 25.2589 86.6098 25.7393 86.2901 26.0929C85.9702 26.4456 85.5421 26.622 85.0047 26.622ZM85.0356 23.1692C84.647 23.1692 84.3316 23.3101 84.0885 23.5919C83.8462 23.8746 83.7246 24.2451 83.7246 24.7033C83.7246 25.1623 83.8426 25.531 84.0796 25.811C84.3158 26.0902 84.625 26.2303 85.0047 26.2303C85.4109 26.2303 85.7306 26.0973 85.9649 25.8305C86.1993 25.5638 86.3156 25.1907 86.3156 24.7113C86.3156 24.2194 86.2028 23.8401 85.9755 23.5715C85.7482 23.303 85.4346 23.1692 85.0356 23.1692Z" fill="white"/>
<path d="M87.9312 25.1526V26.56H87.4978V22.8369H88.5144C88.91 22.8369 89.2166 22.9335 89.4351 23.1276C89.6527 23.3217 89.761 23.5946 89.761 23.9483C89.761 24.301 89.6404 24.5899 89.3981 24.815C89.1566 25.04 88.8299 25.1526 88.4193 25.1526H87.9312ZM87.9312 23.2312V24.7583H88.3858C88.6844 24.7583 88.9135 24.6892 89.0703 24.5518C89.228 24.4144 89.3065 24.2195 89.3065 23.9686C89.3065 23.4767 89.0175 23.2312 88.4395 23.2312H87.9312Z" fill="white"/>
<path d="M94.2313 26.56H93.8004V24.0626C93.8004 23.8649 93.8118 23.6238 93.8365 23.3376H93.826C93.7845 23.506 93.7475 23.6256 93.715 23.6983L92.4507 26.56H92.2384L90.9769 23.7196C90.9407 23.6362 90.9037 23.5095 90.8659 23.3376H90.8553C90.8694 23.4864 90.8756 23.7302 90.8756 24.067V26.56H90.458V22.8369H91.0306L92.1662 25.4326C92.2543 25.632 92.3107 25.7809 92.3371 25.8794H92.3521C92.4261 25.6755 92.486 25.523 92.53 25.4229L93.6894 22.8369H94.2313V26.56Z" fill="white"/>
<path d="M98.0697 26.56H97.5896L97.1975 25.516H95.6276L95.2585 26.56H94.7766L96.1959 22.8369H96.6452L98.0697 26.56ZM97.0548 25.1243L96.4743 23.5379C96.4557 23.4856 96.4364 23.4023 96.4179 23.2889H96.4073C96.3906 23.3943 96.3703 23.4767 96.3483 23.5379L95.7721 25.1243H97.0548Z" fill="white"/>
<path d="M101.892 27.5596H101.491V26.56H98.6143V22.8369H99.0476V26.1656H100.963V22.8369H101.396V26.1656H101.892V27.5596Z" fill="white"/>
<path d="M105.521 26.56H105.087V23.8702C105.087 23.6274 105.095 23.4572 105.113 23.3589H105.097C105.065 23.4431 105.025 23.521 104.978 23.592L103.074 26.56H102.537V22.8369H102.97V25.4593C102.97 25.7393 102.963 25.9219 102.95 26.0069H102.96C102.998 25.9307 103.046 25.8475 103.104 25.758L104.963 22.8369H105.521V26.56Z" fill="white"/>
<path d="M107.988 26.622C107.463 26.622 107.043 26.4483 106.727 26.1C106.412 25.7526 106.253 25.2997 106.253 24.7422C106.253 24.1431 106.414 23.6654 106.736 23.3092C107.057 22.9529 107.496 22.7739 108.05 22.7739C108.561 22.7739 108.973 22.9476 109.285 23.2932C109.597 23.6398 109.753 24.0926 109.753 24.6519C109.753 25.2589 109.593 25.7393 109.273 26.0929C108.953 26.4456 108.525 26.622 107.988 26.622ZM108.019 23.1692C107.63 23.1692 107.315 23.3101 107.072 23.5919C106.829 23.8746 106.708 24.2451 106.708 24.7033C106.708 25.1623 106.826 25.531 107.063 25.811C107.299 26.0902 107.608 26.2303 107.988 26.2303C108.394 26.2303 108.714 26.0973 108.948 25.8305C109.182 25.5638 109.299 25.1907 109.299 24.7113C109.299 24.2194 109.186 23.8401 108.959 23.5715C108.731 23.303 108.418 23.1692 108.019 23.1692Z" fill="white"/>
<path d="M113.263 26.56H112.83V24.8619H110.915V26.56H110.481V22.8369H110.915V24.4703H112.83V22.8369H113.263V26.56Z" fill="white"/>
<path d="M117.016 26.56H116.583V24.8619H114.668V26.56H114.234V22.8369H114.668V24.4703H116.583V22.8369H117.016V26.56Z" fill="white"/>
<path d="M121.154 26.56H120.72V22.8369H121.154V26.56ZM117.987 26.56V22.8369H118.42V24.4153H119.123C119.491 24.4153 119.777 24.5048 119.982 24.6838C120.187 24.8628 120.289 25.118 120.289 25.4486C120.289 25.7916 120.182 26.0619 119.967 26.2613C119.752 26.4607 119.458 26.56 119.087 26.56H117.987ZM118.42 24.8096V26.1656H119.029C119.286 26.1656 119.484 26.1044 119.623 25.9839C119.762 25.8625 119.833 25.6923 119.833 25.4744C119.833 25.0312 119.565 24.8096 119.029 24.8096H118.42Z" fill="white"/>
<path d="M124.682 26.56H124.153L123.301 25.1349C123.276 25.0915 123.246 25.0295 123.216 24.9505H123.205C123.188 24.9904 123.159 25.0516 123.118 25.1349L122.24 26.56H121.708L122.947 24.6882L121.807 22.8369H122.338L123.094 24.1449C123.144 24.2319 123.188 24.3187 123.226 24.4046H123.237C123.291 24.2903 123.34 24.2008 123.381 24.1352L124.168 22.8369H124.667L123.502 24.6829L124.682 26.56Z" fill="white"/>
<path d="M127.126 25.1526V26.56H126.693V22.8369H127.709C128.105 22.8369 128.412 22.9335 128.63 23.1276C128.848 23.3217 128.956 23.5946 128.956 23.9483C128.956 24.301 128.835 24.5899 128.593 24.815C128.352 25.04 128.025 25.1526 127.614 25.1526H127.126ZM127.126 23.2312V24.7583H127.581C127.879 24.7583 128.109 24.6892 128.265 24.5518C128.423 24.4144 128.502 24.2195 128.502 23.9686C128.502 23.4767 128.213 23.2312 127.635 23.2312H127.126Z" fill="white"/>
<path d="M131.614 26.56H129.653V22.8369H131.532V23.2312H130.086V24.4703H131.424V24.8619H130.086V26.1656H131.614V26.56Z" fill="white"/>
<path d="M134.846 26.404C134.573 26.5493 134.232 26.622 133.824 26.622C133.297 26.622 132.876 26.4517 132.559 26.1106C132.242 25.7694 132.084 25.3218 132.084 24.768C132.084 24.1733 132.263 23.6921 132.619 23.3251C132.974 22.9574 133.426 22.7739 133.973 22.7739C134.324 22.7739 134.615 22.8253 134.846 22.9272V23.3925C134.58 23.2436 134.288 23.1692 133.968 23.1692C133.544 23.1692 133.199 23.3119 132.935 23.5973C132.671 23.8826 132.538 24.2645 132.538 24.7422C132.538 25.196 132.662 25.5576 132.908 25.8261C133.156 26.0956 133.479 26.2303 133.881 26.2303C134.252 26.2303 134.574 26.1469 134.846 25.9812V26.404Z" fill="white"/>
<path d="M138.145 22.8369L137.001 25.4353C136.798 25.8962 136.601 26.209 136.413 26.3756C136.223 26.5413 136.016 26.6247 135.793 26.6247C135.609 26.6247 135.455 26.5981 135.331 26.544V26.1027C135.479 26.1912 135.622 26.2355 135.759 26.2355C135.899 26.2355 136.027 26.1815 136.144 26.0734C136.261 25.9653 136.387 25.7738 136.524 25.5009L135.269 22.8369H135.762L136.65 24.8256C136.666 24.8583 136.697 24.939 136.746 25.0667H136.75C136.756 25.0516 136.791 24.9674 136.857 24.815L137.68 22.8369H138.145Z" fill="white"/>
<path d="M139.032 25.1526V26.56H138.599V22.8369H139.615C140.011 22.8369 140.317 22.9335 140.536 23.1276C140.754 23.3217 140.862 23.5946 140.862 23.9483C140.862 24.301 140.741 24.5899 140.499 24.815C140.257 25.04 139.931 25.1526 139.52 25.1526H139.032ZM139.032 23.2312V24.7583H139.487C139.785 24.7583 140.014 24.6892 140.171 24.5518C140.329 24.4144 140.407 24.2195 140.407 23.9686C140.407 23.4767 140.118 23.2312 139.54 23.2312H139.032Z" fill="white"/>
<path d="M144.052 26.404C143.779 26.5493 143.438 26.622 143.03 26.622C142.503 26.622 142.082 26.4517 141.766 26.1106C141.449 25.7694 141.29 25.3218 141.29 24.768C141.29 24.1733 141.469 23.6921 141.825 23.3251C142.181 22.9574 142.633 22.7739 143.18 22.7739C143.53 22.7739 143.821 22.8253 144.052 22.9272V23.3925C143.787 23.2436 143.494 23.1692 143.174 23.1692C142.75 23.1692 142.405 23.3119 142.141 23.5973C141.877 23.8826 141.745 24.2645 141.745 24.7422C141.745 25.196 141.868 25.5576 142.115 25.8261C142.362 26.0956 142.685 26.2303 143.087 26.2303C143.458 26.2303 143.781 26.1469 144.052 25.9812V26.404Z" fill="white"/>
<path d="M146.156 26.622C145.63 26.622 145.21 26.4483 144.895 26.1C144.579 25.7526 144.421 25.2997 144.421 24.7422C144.421 24.1431 144.582 23.6654 144.904 23.3092C145.225 22.9529 145.664 22.7739 146.218 22.7739C146.729 22.7739 147.14 22.9476 147.452 23.2932C147.765 23.6398 147.921 24.0926 147.921 24.6519C147.921 25.2589 147.761 25.7393 147.441 26.0929C147.121 26.4456 146.693 26.622 146.156 26.622ZM146.186 23.1692C145.798 23.1692 145.482 23.3101 145.239 23.5919C144.997 23.8746 144.875 24.2451 144.875 24.7033C144.875 25.1623 144.994 25.531 145.23 25.811C145.467 26.0902 145.776 26.2303 146.156 26.2303C146.562 26.2303 146.881 26.0973 147.116 25.8305C147.35 25.5638 147.467 25.1907 147.467 24.7113C147.467 24.2194 147.354 23.8401 147.126 23.5715C146.899 23.303 146.585 23.1692 146.186 23.1692Z" fill="white"/>
<path d="M148.649 26.56V22.8369H149.702C150.021 22.8369 150.276 22.9158 150.463 23.0726C150.651 23.2303 150.745 23.436 150.745 23.6885C150.745 23.8994 150.688 24.0829 150.574 24.2389C150.46 24.3949 150.304 24.5056 150.104 24.5712V24.5819C150.354 24.6111 150.554 24.706 150.703 24.8655C150.853 25.0259 150.928 25.2341 150.928 25.4902C150.928 25.8084 150.814 26.0664 150.587 26.2639C150.36 26.4616 150.073 26.56 149.727 26.56H148.649ZM149.082 23.2312V24.4338H149.526C149.763 24.4338 149.95 24.3762 150.087 24.2611C150.222 24.1458 150.29 23.9836 150.29 23.7736C150.29 23.412 150.054 23.2312 149.58 23.2312H149.082ZM149.082 24.8256V26.1656H149.671C149.925 26.1656 150.123 26.1044 150.263 25.9839C150.404 25.8625 150.473 25.6959 150.473 25.4849C150.473 25.0453 150.176 24.8256 149.58 24.8256H149.082Z" fill="white"/>
<path d="M153.64 25.1634L152.864 26.0408H152.437L153.217 25.1634L152.437 24.2754H152.864L153.64 25.1634ZM152.636 25.1634L151.864 26.0408H151.426L152.22 25.1634L151.426 24.2754H151.864L152.636 25.1634Z" fill="white"/>
</svg>
